HIERARCHY
ROOT Hips
{
	OFFSET 0.00000 0.00000 0.00000
	CHANNELS 6 Xposition Yposition Zposition Yrotation Zrotation Xrotation 
	JOINT Lumbar
	{
		OFFSET 0 0 0
		CHANNELS 3 Zrotation Xrotation Yrotation
		JOINT Neck
		{
			OFFSET 0.00 0.2701 0.00
			CHANNELS 3 Zrotation Xrotation Yrotation
			End Site
			{
				OFFSET 0.00 0.1379 0.00
			}
		}
		JOINT RightShoulder
		{
			OFFSET 0.0119 0.2289 0.1181
			CHANNELS 3 Zrotation Xrotation Yrotation
			JOINT RightElbow
			{
				OFFSET 0.00 -0.1475 0.00
				CHANNELS 2 Zrotation Yrotation
				JOINT RightWrist
				{
					OFFSET 0.00 -0.1605 0.00
					CHANNELS 2 Zrotation Xrotation
					End Site
					{
						OFFSET 0.0040 -0.1068 0.0006
					}
				}
			}
		}
		JOINT LeftShoulder
		{
			OFFSET 0.0119 0.2289 -0.1181
			CHANNELS 3 Zrotation Xrotation Yrotation
			JOINT LeftElbow
			{
				OFFSET 0.00 -0.1475 0.00
				CHANNELS 2 Zrotation Yrotation
				JOINT LeftWrist
				{
					OFFSET 0.00 -0.1605 0.00
					CHANNELS 2 Zrotation Xrotation
					End Site
					{
						OFFSET 0.0040 -0.1068 -0.0006
					}
				}
			}
		}
	}
	JOINT RightHip
	{
		OFFSET 0.0316 -0.0424 0.0458
		CHANNELS 3 Zrotation Xrotation Yrotation
		JOINT RightKnee
		{
			OFFSET 0.00 -0.2438 0.00
			CHANNELS 1 Zrotation
			JOINT RightAnkle
			{
				OFFSET 0.00 -0.2449 0.00
				CHANNELS 3 Zrotation Xrotation Yrotation
				End Site
				{
					OFFSET 0.1237 -0.0542 0.0051
				}
			}
		}
	}
	JOINT LeftHip
	{
		OFFSET 0.0316 -0.0424 -0.0458
		CHANNELS 3 Zrotation Xrotation Yrotation
		JOINT LeftKnee
		{
			OFFSET 0.00 -0.2438 0.00
			CHANNELS 1 Zrotation
			JOINT LeftAnkle
			{
				OFFSET 0.00 -0.2449 0.00
				CHANNELS 3 Zrotation Xrotation Yrotation
				End Site
				{
					OFFSET 0.1237 -0.0542 -0.0051
				}
			}
		}
	}
}
MOTION
Frames: 13
Frame Time: 0.02
-0.29992 -0.05945 0.05852 11.10508 -19.36848 -0.56829 38.98222 1.37209 -10.78543 -23.88591 2.23085 -2.11994 -62.00302 -12.5366 -17.44375 134.3007 27.84537 49.21956 -10.20302 -55.32108 12.11962 20.55114 134.28061 -28.35232 45.38175 10.10046 33.46802 -1.33427 -12.05366 -26.35384 -6.49887 -1.96937 -3.19415 52.64839 12.92482 6.89204 -17.42187 -11.00872 0.93092 2.88996
-0.2954 -0.0587 0.05407 11.27375 -19.3818 -0.59189 39.0186 1.3444 -10.52346 -24.0663 2.35735 -2.11994 -61.99956 -10.04858 -18.96699 134.30217 27.23039 49.25262 -10.38208 -55.81173 10.79657 23.80553 134.31738 -27.53876 45.38867 10.18058 33.02709 -1.51866 -11.51542 -26.50165 -6.50224 -2.05696 -3.2372 52.53523 12.52838 6.8121 -17.52247 -11.0527 0.8773 2.86515
-0.29085 -0.05791 0.04907 11.54036 -19.34575 -0.61266 38.98644 1.29624 -10.25918 -24.06084 2.49231 -2.11994 -61.6682 -7.94625 -21.36993 134.30017 26.96554 48.72892 -10.53009 -55.36428 10.81121 28.1615 134.30171 -27.55729 43.93243 10.14936 32.51506 -1.74016 -10.96332 -26.62582 -6.52061 -2.16073 -3.28891 52.43873 12.0585 6.71735 -18.42142 -11.13383 0.85662 2.85844
-0.28629 -0.0571 0.04427 11.75711 -19.33863 -0.63029 39.00227 1.25832 -9.99302 -24.14001 2.62168 -2.11994 -61.38979 -5.82247 -23.40582 134.30081 27.12315 48.24293 -10.56856 -55.28557 10.30121 31.9667 134.25551 -27.30197 42.90621 10.04966 32.03807 -1.96109 -10.44599 -26.75781 -6.53325 -2.25259 -3.3346 52.33199 11.61978 6.64575 -18.94435 -11.19128 0.8207 2.84306
-0.28181 -0.05644 0.03966 11.99828 -19.30314 -0.6676 38.95007 1.21582 -9.73927 -24.22333 2.75794 -2.11994 -61.47856 -3.06706 -25.30395 134.30646 25.0112 48.63121 -11.10296 -55.4048 9.43892 35.95769 134.42169 -26.6475 42.84053 10.41657 31.54744 -2.11323 -9.80863 -26.90242 -6.54098 -2.36406 -3.38928 52.23903 11.18941 6.50556 -19.54107 -11.2772 0.78429 2.82875
-0.27716 -0.05547 0.03452 12.20976 -19.31388 -0.66246 39.02076 1.17855 -9.45853 -24.25274 2.88202 -2.11994 -60.74596 -1.69913 -27.68744 134.28863 27.50877 47.0877 -10.62582 -54.90991 9.61273 39.82347 134.13612 -27.00985 40.47554 9.81956 31.06839 -2.41749 -9.41392 -27.01563 -6.56289 -2.43862 -3.42732 52.118 10.72279 6.49705 -20.16727 -11.31229 0.75839 2.81731
-0.27202 -0.05362 0.02811 12.33245 -19.48231 -0.546 39.463 1.15695 -9.11147 -24.16924 2.97074 -2.11994 -57.74565 -4.227 -31.32189 134.31703 44.28393 40.25227 -7.12836 -52.90557 12.51333 43.19336 132.66396 -29.92591 31.65903 6.3304 30.64855 -3.13177 -9.73985 -27.04158 -6.61713 -2.40454 -3.41612 51.94404 10.19749 6.95335 -20.67359 -11.20354 0.74001 2.803
-0.26671 -0.05146 0.02118 12.41878 -19.69564 -0.38601 40.02731 1.14206 -8.73638 -24.0386 3.04701 -2.11994 -53.95049 -8.10681 -35.39104 134.30452 65.39871 31.51859 -2.65691 -50.33077 16.37637 46.38091 130.73659 -33.83483 20.6611 1.92251 30.24168 -3.99752 -10.3007 -27.03867 -6.68584 -2.33331 -3.38812 51.7357 9.63523 7.52989 -21.18062 -11.04148 0.73313 2.79194
-0.26148 -0.04945 0.01446 12.51026 -19.87745 -0.24229 40.52648 1.12661 -8.36872 -23.93533 3.12872 -2.11994 -50.57458 -11.26434 -39.18211 134.23452 83.41973 23.71218 1.21211 -48.04975 19.67572 49.58062 128.98464 -37.32182 10.96513 -1.8909 29.82251 -4.79519 -10.72565 -27.05185 -6.74985 -2.28059 -3.36842 51.52459 9.07375 7.98305 -21.68834 -10.90018 0.73056 2.78395
-0.25623 -0.04739 0.00783 12.65257 -20.10585 -0.11275 41.06764 1.09995 -8.02181 -23.80173 3.21124 -2.11994 -46.93701 -14.89495 -43.3498 134.47271 106.09315 15.59057 5.75063 -45.58427 23.55751 53.12199 127.34861 -40.73438 -0.08347 -6.44559 29.42671 -5.59304 -11.27949 -27.04806 -6.80597 -2.22096 -3.34587 51.3926 8.57343 8.70804 -22.21934 -10.77455 0.69105 2.75845
-0.25099 -0.04537 0.0009 12.67987 -20.24674 0.05594 41.54674 1.09846 -7.62703 -23.72107 3.28948 -2.11994 -43.66592 -17.85107 -46.81712 134.07551 120.2222 7.71033 9.13347 -43.3864 26.43374 55.88744 125.38217 -44.50247 -8.82569 -9.68542 28.98765 -6.42338 -11.61279 -27.07762 -6.88237 -2.16746 -3.3256 51.08632 7.94275 8.91781 -22.69234 -10.60347 0.72806 2.76863
-0.24576 -0.04351 -0.00677 12.39145 -20.15079 0.32781 41.86289 1.16519 -7.09046 -23.81075 3.35492 -2.11994 -41.55502 -18.65516 -48.30288 131.79527 108.64914 0.72243 9.01754 -42.01648 26.32334 56.60539 122.45904 -49.20789 -10.55523 -8.96124 28.41657 -7.32927 -11.35235 -27.16961 -7.00608 -2.13289 -3.31185 50.31704 6.91919 7.48079 -22.99313 -10.31718 0.99741 2.88801
-0.24055 -0.04171 -0.01473 11.98952 -19.9627 0.63634 42.10549 1.25695 -6.51014 -23.9537 3.41713 -2.11994 -39.85139 -18.72384 -49.05129 128.90337 88.51541 -5.90945 7.71764 -40.94909 25.15694 56.53191 119.2491 -54.19258 -9.90167 -6.90192 27.80513 -8.25848 -10.85096 -27.30473 -7.15073 -2.10674 -3.30154 49.37202 5.77342 5.55421 -23.23336 -9.98747 1.33913 3.04112
